<svg xmlns="http://www.w3.org/2000/svg" width="980" height="420" viewBox="0 0 980 420">
<rect width="100%" height="100%" fill="#ffffff"/>
<text x="40" y="30" font-family="Arial" font-size="20" font-weight="700" fill="#111827">CellForge Hypothesis Audit Scores</text>
<text x="40" y="55" font-family="Arial" font-size="12" fill="#4b5563">Higher grounding/feasibility is better; lower hallucination risk is better.</text>
<line x1="90" y1="310.0" x2="910" y2="310.0" stroke="#e5e7eb"/>
<text x="44" y="314.0" font-family="Arial" font-size="11" fill="#6b7280">0.0</text>
<line x1="90" y1="258.0" x2="910" y2="258.0" stroke="#e5e7eb"/>
<text x="44" y="262.0" font-family="Arial" font-size="11" fill="#6b7280">0.2</text>
<line x1="90" y1="206.0" x2="910" y2="206.0" stroke="#e5e7eb"/>
<text x="44" y="210.0" font-family="Arial" font-size="11" fill="#6b7280">0.4</text>
<line x1="90" y1="154.0" x2="910" y2="154.0" stroke="#e5e7eb"/>
<text x="44" y="158.0" font-family="Arial" font-size="11" fill="#6b7280">0.6</text>
<line x1="90" y1="102.0" x2="910" y2="102.0" stroke="#e5e7eb"/>
<text x="44" y="106.0" font-family="Arial" font-size="11" fill="#6b7280">0.8</text>
<line x1="90" y1="50.0" x2="910" y2="50.0" stroke="#e5e7eb"/>
<text x="44" y="54.0" font-family="Arial" font-size="11" fill="#6b7280">1.0</text>
<rect x="125" y="147.2" width="34" height="162.8" rx="4" fill="#2563eb"/>
<text x="142.0" y="141.2" text-anchor="middle" font-family="Arial" font-size="11" fill="#111827">0.63</text>
<rect x="167" y="166.2" width="34" height="143.8" rx="4" fill="#16a34a"/>
<text x="184.0" y="160.2" text-anchor="middle" font-family="Arial" font-size="11" fill="#111827">0.55</text>
<rect x="209" y="191.7" width="34" height="118.3" rx="4" fill="#9333ea"/>
<text x="226.0" y="185.7" text-anchor="middle" font-family="Arial" font-size="11" fill="#111827">0.46</text>
<text x="183" y="338" text-anchor="middle" font-family="Arial" font-size="13" font-weight="700" fill="#111827">H001</text>
<rect x="285" y="178.2" width="34" height="131.8" rx="4" fill="#2563eb"/>
<text x="302.0" y="172.2" text-anchor="middle" font-family="Arial" font-size="11" fill="#111827">0.51</text>
<rect x="327" y="187.5" width="34" height="122.5" rx="4" fill="#16a34a"/>
<text x="344.0" y="181.5" text-anchor="middle" font-family="Arial" font-size="11" fill="#111827">0.47</text>
<rect x="369" y="137.1" width="34" height="172.9" rx="4" fill="#9333ea"/>
<text x="386.0" y="131.1" text-anchor="middle" font-family="Arial" font-size="11" fill="#111827">0.67</text>
<text x="343" y="338" text-anchor="middle" font-family="Arial" font-size="13" font-weight="700" fill="#111827">H002</text>
<rect x="445" y="121.5" width="34" height="188.5" rx="4" fill="#2563eb"/>
<text x="462.0" y="115.5" text-anchor="middle" font-family="Arial" font-size="11" fill="#111827">0.72</text>
<rect x="487" y="157.4" width="34" height="152.6" rx="4" fill="#16a34a"/>
<text x="504.0" y="151.4" text-anchor="middle" font-family="Arial" font-size="11" fill="#111827">0.59</text>
<rect x="529" y="155.3" width="34" height="154.7" rx="4" fill="#9333ea"/>
<text x="546.0" y="149.3" text-anchor="middle" font-family="Arial" font-size="11" fill="#111827">0.59</text>
<text x="503" y="338" text-anchor="middle" font-family="Arial" font-size="13" font-weight="700" fill="#111827">H003</text>
<rect x="605" y="121.2" width="34" height="188.8" rx="4" fill="#2563eb"/>
<text x="622.0" y="115.2" text-anchor="middle" font-family="Arial" font-size="11" fill="#111827">0.73</text>
<rect x="647" y="159.2" width="34" height="150.8" rx="4" fill="#16a34a"/>
<text x="664.0" y="153.2" text-anchor="middle" font-family="Arial" font-size="11" fill="#111827">0.58</text>
<rect x="689" y="182.6" width="34" height="127.4" rx="4" fill="#9333ea"/>
<text x="706.0" y="176.6" text-anchor="middle" font-family="Arial" font-size="11" fill="#111827">0.49</text>
<text x="663" y="338" text-anchor="middle" font-family="Arial" font-size="13" font-weight="700" fill="#111827">H004</text>
<rect x="765" y="137.4" width="34" height="172.6" rx="4" fill="#2563eb"/>
<text x="782.0" y="131.4" text-anchor="middle" font-family="Arial" font-size="11" fill="#111827">0.66</text>
<rect x="807" y="165.2" width="34" height="144.8" rx="4" fill="#16a34a"/>
<text x="824.0" y="159.2" text-anchor="middle" font-family="Arial" font-size="11" fill="#111827">0.56</text>
<rect x="849" y="200.8" width="34" height="109.2" rx="4" fill="#9333ea"/>
<text x="866.0" y="194.8" text-anchor="middle" font-family="Arial" font-size="11" fill="#111827">0.42</text>
<text x="823" y="338" text-anchor="middle" font-family="Arial" font-size="13" font-weight="700" fill="#111827">H005</text>
<rect x="620" y="26" width="12" height="12" fill="#2563eb"/>
<text x="638" y="37" font-family="Arial" font-size="12" fill="#374151">Claim grounding</text>
<rect x="735" y="26" width="12" height="12" fill="#16a34a"/>
<text x="753" y="37" font-family="Arial" font-size="12" fill="#374151">1 - hallucination risk</text>
<rect x="850" y="26" width="12" height="12" fill="#9333ea"/>
<text x="868" y="37" font-family="Arial" font-size="12" fill="#374151">Feasibility</text>
</svg>