<svg xmlns="http://www.w3.org/2000/svg" width="1180" height="680" viewBox="0 0 1180 680">
<defs>
<radialGradient id="graphiteGrad" cx="45%" cy="40%" r="65%">
<stop offset="0%" stop-color="#475569"/>
<stop offset="65%" stop-color="#1f2937"/>
<stop offset="100%" stop-color="#020617"/>
</radialGradient>
<linearGradient id="seiGrad" x1="0%" x2="100%" y1="0%" y2="100%">
<stop offset="0%" stop-color="#a7f3d0" stop-opacity="0.85"/>
<stop offset="100%" stop-color="#67e8f9" stop-opacity="0.7"/>
</linearGradient>
<marker id="arrow" markerWidth="12" markerHeight="12" refX="10" refY="6" orient="auto">
<path d="M2,2 L10,6 L2,10 Z" fill="#2563eb"/>
</marker>
<marker id="electronArrow" markerWidth="12" markerHeight="12" refX="10" refY="6" orient="auto">
<path d="M2,2 L10,6 L2,10 Z" fill="#f59e0b"/>
</marker>
</defs>
<rect width="100%" height="100%" fill="#ffffff"/>
<text x="44" y="42" font-family="Arial" font-size="23" font-weight="700" fill="#111827">Conceptual molecular/interface schematic for lead hypothesis H003</text>
<text x="44" y="68" font-family="Arial" font-size="13" fill="#4b5563">Simulated interpretation: regenerated/natural graphite surface repaired by bio-derived carbon coating and stabilized SEI. Not an atomistic simulation result.</text>
<rect x="42" y="96" width="1096" height="510" rx="14" fill="#f8fafc" stroke="#d1d5db"/>
<ellipse cx="420" cy="350" rx="235" ry="160" fill="url(#graphiteGrad)" stroke="#111827" stroke-width="3"/>
<ellipse cx="420" cy="350" rx="257" ry="181" fill="none" stroke="#7c2d12" stroke-width="22" stroke-opacity="0.72"/>
<ellipse cx="420" cy="350" rx="285" ry="207" fill="none" stroke="url(#seiGrad)" stroke-width="28" stroke-opacity="0.86"/>
<text x="311" y="342" font-family="Arial" font-size="19" font-weight="700" fill="#f8fafc">Regenerated / natural</text>
<text x="350" y="368" font-family="Arial" font-size="19" font-weight="700" fill="#f8fafc">graphite core</text>
<text x="206" y="160" font-family="Arial" font-size="13" font-weight="700" fill="#7c2d12">thin bio-derived carbon repair layer</text>
<text x="214" y="545" font-family="Arial" font-size="13" font-weight="700" fill="#0f766e">stable SEI / electrolyte interface</text>
<path d="M235 240 C330 212, 505 212, 600 240" fill="none" stroke="#94a3b8" stroke-width="2" opacity="0.45"/>
<circle cx="270" cy="232" r="3.5" fill="#cbd5e1" opacity="0.7"/>
<circle cx="318" cy="232" r="3.5" fill="#cbd5e1" opacity="0.7"/>
<circle cx="366" cy="232" r="3.5" fill="#cbd5e1" opacity="0.7"/>
<circle cx="414" cy="232" r="3.5" fill="#cbd5e1" opacity="0.7"/>
<circle cx="462" cy="232" r="3.5" fill="#cbd5e1" opacity="0.7"/>
<circle cx="510" cy="232" r="3.5" fill="#cbd5e1" opacity="0.7"/>
<circle cx="558" cy="232" r="3.5" fill="#cbd5e1" opacity="0.7"/>
<path d="M235 268 C330 240, 505 240, 600 268" fill="none" stroke="#94a3b8" stroke-width="2" opacity="0.45"/>
<circle cx="270" cy="260" r="3.5" fill="#cbd5e1" opacity="0.7"/>
<circle cx="318" cy="260" r="3.5" fill="#cbd5e1" opacity="0.7"/>
<circle cx="366" cy="260" r="3.5" fill="#cbd5e1" opacity="0.7"/>
<circle cx="414" cy="260" r="3.5" fill="#cbd5e1" opacity="0.7"/>
<circle cx="462" cy="260" r="3.5" fill="#cbd5e1" opacity="0.7"/>
<circle cx="510" cy="260" r="3.5" fill="#cbd5e1" opacity="0.7"/>
<circle cx="558" cy="260" r="3.5" fill="#cbd5e1" opacity="0.7"/>
<path d="M235 296 C330 268, 505 268, 600 296" fill="none" stroke="#94a3b8" stroke-width="2" opacity="0.45"/>
<circle cx="270" cy="288" r="3.5" fill="#cbd5e1" opacity="0.7"/>
<circle cx="318" cy="288" r="3.5" fill="#cbd5e1" opacity="0.7"/>
<circle cx="366" cy="288" r="3.5" fill="#cbd5e1" opacity="0.7"/>
<circle cx="414" cy="288" r="3.5" fill="#cbd5e1" opacity="0.7"/>
<circle cx="462" cy="288" r="3.5" fill="#cbd5e1" opacity="0.7"/>
<circle cx="510" cy="288" r="3.5" fill="#cbd5e1" opacity="0.7"/>
<circle cx="558" cy="288" r="3.5" fill="#cbd5e1" opacity="0.7"/>
<path d="M235 324 C330 296, 505 296, 600 324" fill="none" stroke="#94a3b8" stroke-width="2" opacity="0.45"/>
<circle cx="270" cy="316" r="3.5" fill="#cbd5e1" opacity="0.7"/>
<circle cx="318" cy="316" r="3.5" fill="#cbd5e1" opacity="0.7"/>
<circle cx="366" cy="316" r="3.5" fill="#cbd5e1" opacity="0.7"/>
<circle cx="414" cy="316" r="3.5" fill="#cbd5e1" opacity="0.7"/>
<circle cx="462" cy="316" r="3.5" fill="#cbd5e1" opacity="0.7"/>
<circle cx="510" cy="316" r="3.5" fill="#cbd5e1" opacity="0.7"/>
<circle cx="558" cy="316" r="3.5" fill="#cbd5e1" opacity="0.7"/>
<path d="M235 352 C330 324, 505 324, 600 352" fill="none" stroke="#94a3b8" stroke-width="2" opacity="0.45"/>
<circle cx="270" cy="344" r="3.5" fill="#cbd5e1" opacity="0.7"/>
<circle cx="318" cy="344" r="3.5" fill="#cbd5e1" opacity="0.7"/>
<circle cx="366" cy="344" r="3.5" fill="#cbd5e1" opacity="0.7"/>
<circle cx="414" cy="344" r="3.5" fill="#cbd5e1" opacity="0.7"/>
<circle cx="462" cy="344" r="3.5" fill="#cbd5e1" opacity="0.7"/>
<circle cx="510" cy="344" r="3.5" fill="#cbd5e1" opacity="0.7"/>
<circle cx="558" cy="344" r="3.5" fill="#cbd5e1" opacity="0.7"/>
<path d="M235 380 C330 352, 505 352, 600 380" fill="none" stroke="#94a3b8" stroke-width="2" opacity="0.45"/>
<circle cx="270" cy="372" r="3.5" fill="#cbd5e1" opacity="0.7"/>
<circle cx="318" cy="372" r="3.5" fill="#cbd5e1" opacity="0.7"/>
<circle cx="366" cy="372" r="3.5" fill="#cbd5e1" opacity="0.7"/>
<circle cx="414" cy="372" r="3.5" fill="#cbd5e1" opacity="0.7"/>
<circle cx="462" cy="372" r="3.5" fill="#cbd5e1" opacity="0.7"/>
<circle cx="510" cy="372" r="3.5" fill="#cbd5e1" opacity="0.7"/>
<circle cx="558" cy="372" r="3.5" fill="#cbd5e1" opacity="0.7"/>
<path d="M235 408 C330 380, 505 380, 600 408" fill="none" stroke="#94a3b8" stroke-width="2" opacity="0.45"/>
<circle cx="270" cy="400" r="3.5" fill="#cbd5e1" opacity="0.7"/>
<circle cx="318" cy="400" r="3.5" fill="#cbd5e1" opacity="0.7"/>
<circle cx="366" cy="400" r="3.5" fill="#cbd5e1" opacity="0.7"/>
<circle cx="414" cy="400" r="3.5" fill="#cbd5e1" opacity="0.7"/>
<circle cx="462" cy="400" r="3.5" fill="#cbd5e1" opacity="0.7"/>
<circle cx="510" cy="400" r="3.5" fill="#cbd5e1" opacity="0.7"/>
<circle cx="558" cy="400" r="3.5" fill="#cbd5e1" opacity="0.7"/>
<path d="M235 436 C330 408, 505 408, 600 436" fill="none" stroke="#94a3b8" stroke-width="2" opacity="0.45"/>
<circle cx="270" cy="428" r="3.5" fill="#cbd5e1" opacity="0.7"/>
<circle cx="318" cy="428" r="3.5" fill="#cbd5e1" opacity="0.7"/>
<circle cx="366" cy="428" r="3.5" fill="#cbd5e1" opacity="0.7"/>
<circle cx="414" cy="428" r="3.5" fill="#cbd5e1" opacity="0.7"/>
<circle cx="462" cy="428" r="3.5" fill="#cbd5e1" opacity="0.7"/>
<circle cx="510" cy="428" r="3.5" fill="#cbd5e1" opacity="0.7"/>
<circle cx="558" cy="428" r="3.5" fill="#cbd5e1" opacity="0.7"/>
<path d="M235 464 C330 436, 505 436, 600 464" fill="none" stroke="#94a3b8" stroke-width="2" opacity="0.45"/>
<circle cx="270" cy="456" r="3.5" fill="#cbd5e1" opacity="0.7"/>
<circle cx="318" cy="456" r="3.5" fill="#cbd5e1" opacity="0.7"/>
<circle cx="366" cy="456" r="3.5" fill="#cbd5e1" opacity="0.7"/>
<circle cx="414" cy="456" r="3.5" fill="#cbd5e1" opacity="0.7"/>
<circle cx="462" cy="456" r="3.5" fill="#cbd5e1" opacity="0.7"/>
<circle cx="510" cy="456" r="3.5" fill="#cbd5e1" opacity="0.7"/>
<circle cx="558" cy="456" r="3.5" fill="#cbd5e1" opacity="0.7"/>
<polygon points="221.3,279.5 210.0,286.0 198.7,279.5 198.7,266.5 210.0,260.0 221.3,266.5" fill="#fed7aa" stroke="#9a3412" stroke-width="1.4"/>
<circle cx="229" cy="260" r="4" fill="#ef4444"/>
<circle cx="192" cy="288" r="4" fill="#ef4444"/>
<polygon points="255.3,228.5 244.0,235.0 232.7,228.5 232.7,215.5 244.0,209.0 255.3,215.5" fill="#fed7aa" stroke="#9a3412" stroke-width="1.4"/>
<circle cx="263" cy="209" r="4" fill="#ef4444"/>
<circle cx="226" cy="237" r="4" fill="#ef4444"/>
<polygon points="349.3,176.5 338.0,183.0 326.7,176.5 326.7,163.5 338.0,157.0 349.3,163.5" fill="#fed7aa" stroke="#9a3412" stroke-width="1.4"/>
<circle cx="357" cy="157" r="4" fill="#ef4444"/>
<circle cx="320" cy="185" r="4" fill="#ef4444"/>
<polygon points="547.3,196.5 536.0,203.0 524.7,196.5 524.7,183.5 536.0,177.0 547.3,183.5" fill="#fed7aa" stroke="#9a3412" stroke-width="1.4"/>
<circle cx="555" cy="177" r="4" fill="#ef4444"/>
<circle cx="518" cy="205" r="4" fill="#ef4444"/>
<polygon points="651.3,293.5 640.0,300.0 628.7,293.5 628.7,280.5 640.0,274.0 651.3,280.5" fill="#fed7aa" stroke="#9a3412" stroke-width="1.4"/>
<circle cx="659" cy="274" r="4" fill="#ef4444"/>
<circle cx="622" cy="302" r="4" fill="#ef4444"/>
<polygon points="636.3,434.5 625.0,441.0 613.7,434.5 613.7,421.5 625.0,415.0 636.3,421.5" fill="#fed7aa" stroke="#9a3412" stroke-width="1.4"/>
<circle cx="644" cy="415" r="4" fill="#ef4444"/>
<circle cx="607" cy="443" r="4" fill="#ef4444"/>
<polygon points="509.3,526.5 498.0,533.0 486.7,526.5 486.7,513.5 498.0,507.0 509.3,513.5" fill="#fed7aa" stroke="#9a3412" stroke-width="1.4"/>
<circle cx="517" cy="507" r="4" fill="#ef4444"/>
<circle cx="480" cy="535" r="4" fill="#ef4444"/>
<polygon points="311.3,521.5 300.0,528.0 288.7,521.5 288.7,508.5 300.0,502.0 311.3,508.5" fill="#fed7aa" stroke="#9a3412" stroke-width="1.4"/>
<circle cx="319" cy="502" r="4" fill="#ef4444"/>
<circle cx="282" cy="530" r="4" fill="#ef4444"/>
<polygon points="187.3,404.5 176.0,411.0 164.7,404.5 164.7,391.5 176.0,385.0 187.3,391.5" fill="#fed7aa" stroke="#9a3412" stroke-width="1.4"/>
<circle cx="195" cy="385" r="4" fill="#ef4444"/>
<circle cx="158" cy="413" r="4" fill="#ef4444"/>
<path d="M865 245 C760 215, 720 265, 647 245" fill="none" stroke="#2563eb" stroke-width="3" marker-end="url(#arrow)" stroke-dasharray="8 7"/>
<circle cx="890" cy="241" r="14" fill="#dbeafe" stroke="#2563eb" stroke-width="2"/>
<text x="890" y="246" text-anchor="middle" font-family="Arial" font-size="11" font-weight="700" fill="#1d4ed8">Li+</text>
<path d="M865 320 C760 290, 720 340, 647 320" fill="none" stroke="#2563eb" stroke-width="3" marker-end="url(#arrow)" stroke-dasharray="8 7"/>
<circle cx="890" cy="316" r="14" fill="#dbeafe" stroke="#2563eb" stroke-width="2"/>
<text x="890" y="321" text-anchor="middle" font-family="Arial" font-size="11" font-weight="700" fill="#1d4ed8">Li+</text>
<path d="M865 395 C760 365, 720 415, 647 395" fill="none" stroke="#2563eb" stroke-width="3" marker-end="url(#arrow)" stroke-dasharray="8 7"/>
<circle cx="890" cy="391" r="14" fill="#dbeafe" stroke="#2563eb" stroke-width="2"/>
<text x="890" y="396" text-anchor="middle" font-family="Arial" font-size="11" font-weight="700" fill="#1d4ed8">Li+</text>
<path d="M655 470 C760 525, 835 505, 932 445" fill="none" stroke="#f59e0b" stroke-width="3" marker-end="url(#electronArrow)"/>
<text x="800" y="535" text-anchor="middle" font-family="Arial" font-size="13" font-weight="700" fill="#92400e">electron pathway through repaired conductive coating</text>
<rect x="735" y="132" width="360" height="58" rx="9" fill="#ffffff" stroke="#166534" stroke-width="1.6"/>
<text x="749" y="153" font-family="Arial" font-size="13" font-weight="700" fill="#166534">Green purification</text>
<text x="749" y="174" font-family="Arial" font-size="12" fill="#374151">real:C107_01: carbon purity exceeding 99.99%</text>
<rect x="742" y="214" width="360" height="58" rx="9" fill="#ffffff" stroke="#1d4ed8" stroke-width="1.6"/>
<text x="756" y="235" font-family="Arial" font-size="13" font-weight="700" fill="#1d4ed8">Regenerated graphite</text>
<text x="756" y="256" font-family="Arial" font-size="12" fill="#374151">real:C107_02: reversible capacity 353 mAh/g</text>
<rect x="742" y="296" width="360" height="58" rx="9" fill="#ffffff" stroke="#9a3412" stroke-width="1.6"/>
<text x="756" y="317" font-family="Arial" font-size="13" font-weight="700" fill="#9a3412">Bio-based coating</text>
<text x="756" y="338" font-family="Arial" font-size="12" fill="#374151">real:C099_01: capacity retention 89%</text>
<rect x="742" y="378" width="360" height="58" rx="9" fill="#ffffff" stroke="#b91c1c" stroke-width="1.6"/>
<text x="756" y="399" font-family="Arial" font-size="13" font-weight="700" fill="#b91c1c">Risk control</text>
<text x="756" y="420" font-family="Arial" font-size="12" fill="#374151">Avoid solvent/regulatory burden flagged by real:C110_01</text>
<line x1="735" y1="162" x2="660" y2="230" stroke="#166534" stroke-width="1.5"/>
<line x1="742" y1="242" x2="600" y2="330" stroke="#1d4ed8" stroke-width="1.5"/>
<line x1="742" y1="324" x2="655" y2="294" stroke="#9a3412" stroke-width="1.5"/>
<line x1="742" y1="406" x2="655" y2="435" stroke="#b91c1c" stroke-width="1.5"/>
<rect x="72" y="626" width="18" height="18" fill="#1f2937"/>
<text x="98" y="640" font-family="Arial" font-size="12" fill="#374151">graphite basal-plane network</text>
<rect x="294" y="626" width="18" height="18" fill="#fed7aa" stroke="#9a3412"/>
<text x="320" y="640" font-family="Arial" font-size="12" fill="#374151">tannic-derived carbon/phenolic motif</text>
<rect x="574" y="626" width="18" height="18" fill="#a7f3d0" stroke="#0f766e"/>
<text x="600" y="640" font-family="Arial" font-size="12" fill="#374151">SEI/electrolyte interface</text>
<line x1="790" y1="635" x2="850" y2="635" stroke="#2563eb" stroke-width="3" marker-end="url(#arrow)" stroke-dasharray="8 7"/>
<text x="862" y="640" font-family="Arial" font-size="12" fill="#374151">Li-ion flux</text>
</svg>