<svg xmlns="http://www.w3.org/2000/svg" width="760" height="520" viewBox="0 0 760 520">
<rect width="100%" height="100%" fill="#ffffff"/>
<text x="34" y="30" font-family="Arial" font-size="20" font-weight="700" fill="#111827">Grounding vs. Hallucination Risk</text>
<line x1="80" y1="415" x2="680" y2="415" stroke="#111827"/>
<line x1="80" y1="55" x2="80" y2="415" stroke="#111827"/>
<line x1="80.0" y1="55" x2="80.0" y2="415" stroke="#e5e7eb"/>
<line x1="80" y1="415.0" x2="680" y2="415.0" stroke="#e5e7eb"/>
<text x="73.0" y="437" font-family="Arial" font-size="11" fill="#6b7280">0.0</text>
<text x="46" y="419.0" font-family="Arial" font-size="11" fill="#6b7280">0.0</text>
<line x1="200.0" y1="55" x2="200.0" y2="415" stroke="#e5e7eb"/>
<line x1="80" y1="343.0" x2="680" y2="343.0" stroke="#e5e7eb"/>
<text x="193.0" y="437" font-family="Arial" font-size="11" fill="#6b7280">0.2</text>
<text x="46" y="347.0" font-family="Arial" font-size="11" fill="#6b7280">0.2</text>
<line x1="320.0" y1="55" x2="320.0" y2="415" stroke="#e5e7eb"/>
<line x1="80" y1="271.0" x2="680" y2="271.0" stroke="#e5e7eb"/>
<text x="313.0" y="437" font-family="Arial" font-size="11" fill="#6b7280">0.4</text>
<text x="46" y="275.0" font-family="Arial" font-size="11" fill="#6b7280">0.4</text>
<line x1="440.0" y1="55" x2="440.0" y2="415" stroke="#e5e7eb"/>
<line x1="80" y1="199.0" x2="680" y2="199.0" stroke="#e5e7eb"/>
<text x="433.0" y="437" font-family="Arial" font-size="11" fill="#6b7280">0.6</text>
<text x="46" y="203.0" font-family="Arial" font-size="11" fill="#6b7280">0.6</text>
<line x1="560.0" y1="55" x2="560.0" y2="415" stroke="#e5e7eb"/>
<line x1="80" y1="127.0" x2="680" y2="127.0" stroke="#e5e7eb"/>
<text x="553.0" y="437" font-family="Arial" font-size="11" fill="#6b7280">0.8</text>
<text x="46" y="131.0" font-family="Arial" font-size="11" fill="#6b7280">0.8</text>
<line x1="680.0" y1="55" x2="680.0" y2="415" stroke="#e5e7eb"/>
<line x1="80" y1="55.0" x2="680" y2="55.0" stroke="#e5e7eb"/>
<text x="673.0" y="437" font-family="Arial" font-size="11" fill="#6b7280">1.0</text>
<text x="46" y="59.0" font-family="Arial" font-size="11" fill="#6b7280">1.0</text>
<text x="380.0" y="485" text-anchor="middle" font-family="Arial" font-size="13" fill="#111827">Claim grounding</text>
<text x="18" y="235.0" transform="rotate(-90 18,235.0)" text-anchor="middle" font-family="Arial" font-size="13" fill="#111827">Hallucination risk</text>
<circle cx="455.6" cy="254.1" r="15" fill="#ca8a04" opacity="0.9"/>
<text x="455.6" y="258.1" text-anchor="middle" font-family="Arial" font-size="10" font-weight="700" fill="#ffffff">H001</text>
<circle cx="384.2" cy="224.6" r="15" fill="#dc2626" opacity="0.9"/>
<text x="384.2" y="228.6" text-anchor="middle" font-family="Arial" font-size="10" font-weight="700" fill="#ffffff">H002</text>
<circle cx="515.0" cy="266.3" r="15" fill="#ca8a04" opacity="0.9"/>
<text x="515.0" y="270.3" text-anchor="middle" font-family="Arial" font-size="10" font-weight="700" fill="#ffffff">H003</text>
<circle cx="515.6" cy="263.8" r="15" fill="#ca8a04" opacity="0.9"/>
<text x="515.6" y="267.8" text-anchor="middle" font-family="Arial" font-size="10" font-weight="700" fill="#ffffff">H004</text>
<circle cx="478.4" cy="255.5" r="15" fill="#ca8a04" opacity="0.9"/>
<text x="478.4" y="259.5" text-anchor="middle" font-family="Arial" font-size="10" font-weight="700" fill="#ffffff">H005</text>
</svg>